<svg width="174" height="25" fill="none" xmlns="http://www.w3.org/2000/svg"><path d="M.68 18.5V1.22h2.9v7.27h8.18V1.22h2.88V18.5h-2.88v-7.3H3.57v7.3H.68Zm23.93.36a6.83 6.83 0 0 1-3.45-.85 6.07 6.07 0 0 1-2.33-2.37 7.1 7.1 0 0 1-.83-3.48c0-1.41.27-2.64.82-3.68a5.96 5.96 0 0 1 2.26-2.44 6.44 6.44 0 0 1 3.36-.86 5.54 5.54 0 0 1 5.52 3.6c.46 1.14.63 2.5.52 4.04h-2.87v-1.05c0-1.41-.25-2.44-.74-3.09-.49-.64-1.26-.97-2.3-.97-1.19 0-2.07.37-2.65 1.1-.57.73-.86 1.8-.86 3.21 0 1.31.29 2.33.86 3.05.58.72 1.42 1.08 2.52 1.08a3.12 3.12 0 0 0 3.04-1.85l2.86.86a5.79 5.79 0 0 1-2.3 2.73 6.3 6.3 0 0 1-3.43.97Zm-4.46-6.04v-2.18h8.91v2.18h-8.91Zm17.12 6.04c-.94 0-1.73-.18-2.38-.53a3.73 3.73 0 0 1-1.97-3.38c0-.63.1-1.19.32-1.68.2-.5.52-.94.96-1.3.43-.37.99-.67 1.68-.9.52-.17 1.12-.32 1.82-.45.7-.14 1.46-.26 2.28-.38l2.58-.38-1.03.59c0-.9-.2-1.56-.6-1.98-.41-.43-1.1-.64-2.07-.64a3.8 3.8 0 0 0-1.69.41c-.54.27-.92.74-1.14 1.4l-2.64-.82a4.9 4.9 0 0 1 1.83-2.64c.9-.67 2.12-1 3.64-1a7.7 7.7 0 0 1 3.04.56 4.1 4.1 0 0 1 2.38 3.25c.04.48.07 1 .07 1.55v7.96h-2.53v-2.8l.42.45a5.82 5.82 0 0 1-2.06 2.06c-.77.43-1.74.65-2.91.65Zm.57-2.3c.66 0 1.22-.12 1.68-.35a3.28 3.28 0 0 0 1.67-1.8c.15-.37.24-.79.25-1.26.03-.48.04-.87.04-1.17l.89.27-2.25.36a26.46 26.46 0 0 0-2.8.6c-.33.12-.61.26-.84.42-.24.16-.42.34-.54.55-.12.2-.18.45-.18.73 0 .32.08.6.24.85.16.24.39.44.7.58.3.14.69.22 1.14.22Zm10.6 1.94V.86h2.88V18.5h-2.89Zm16.16 0v-6.24c0-.4-.03-.86-.08-1.36-.06-.5-.19-.97-.4-1.42a2.7 2.7 0 0 0-.91-1.14c-.4-.3-.94-.45-1.63-.45-.37 0-.73.06-1.1.18a2.5 2.5 0 0 0-.98.63 3 3 0 0 0-.7 1.2 6 6 0 0 0-.26 1.94l-1.71-.73c0-1.1.2-2.1.63-3a5.1 5.1 0 0 1 1.9-2.14c.83-.53 1.85-.8 3.07-.8.96 0 1.75.16 2.38.48a4.2 4.2 0 0 1 1.48 1.22c.37.5.64 1.03.82 1.59a11.26 11.26 0 0 1 .42 2.8v7.24H64.6Zm-8.99 0V1.22h2.58v9.1h.35v8.18h-2.93Zm23.37 0c-.86.16-1.7.23-2.52.2a5.78 5.78 0 0 1-2.2-.44 3.04 3.04 0 0 1-1.47-1.36 3.86 3.86 0 0 1-.47-1.71c-.02-.59-.03-1.25-.03-1.98V1.94h2.88v11.1c0 .52 0 .98.02 1.37.01.39.1.71.25.96.29.48.75.75 1.38.8.63.06 1.35.03 2.16-.1v2.43ZM69.94 7.8V5.55h9.04v2.27h-9.04Zm13.9 16.46 2.5-6.85.04 2.01-5.65-13.88h3.01l4 10.27h-.76l3.9-10.27h2.9l-7.23 18.72h-2.71Z" fill="#121212"/><path d="M103.6 18.86a8.38 8.38 0 0 1-4.45-1.13 7.54 7.54 0 0 1-2.84-3.17 10.65 10.65 0 0 1-.99-4.7c0-1.78.33-3.35.99-4.7A7.46 7.46 0 0 1 99.15 2a8.3 8.3 0 0 1 4.44-1.14c2 0 3.65.5 4.98 1.5a7.82 7.82 0 0 1 2.8 4.02l-2.92.8a5.1 5.1 0 0 0-1.72-2.64 4.91 4.91 0 0 0-3.14-.96 5.1 5.1 0 0 0-2.9.78 4.79 4.79 0 0 0-1.74 2.2 8.8 8.8 0 0 0-.6 3.3c0 1.26.2 2.37.58 3.31.4.94.98 1.67 1.76 2.19a5.1 5.1 0 0 0 2.9.78c1.29 0 2.34-.32 3.14-.96a5.14 5.14 0 0 0 1.72-2.64l2.92.8a7.89 7.89 0 0 1-2.8 4.03 8.09 8.09 0 0 1-4.98 1.49Zm14.75 0c-.94 0-1.73-.18-2.38-.53a3.73 3.73 0 0 1-1.97-3.38c0-.63.1-1.19.31-1.68.21-.5.53-.94.96-1.3.44-.37 1-.67 1.68-.9.52-.17 1.13-.32 1.83-.45.7-.14 1.46-.26 2.28-.38l2.58-.38-1.03.59c0-.9-.2-1.56-.6-1.98-.41-.43-1.1-.64-2.07-.64-.58 0-1.15.14-1.7.41a2.3 2.3 0 0 0-1.13 1.4l-2.64-.82a4.9 4.9 0 0 1 1.82-2.64c.9-.67 2.12-1 3.65-1 1.15 0 2.17.19 3.04.56.88.38 1.53 1 1.95 1.85.23.46.38.93.42 1.4.05.48.08 1 .08 1.55v7.96h-2.54v-2.8l.42.45a5.82 5.82 0 0 1-2.05 2.06c-.78.43-1.75.65-2.92.65Zm.57-2.3c.66 0 1.22-.12 1.68-.35a3.28 3.28 0 0 0 1.67-1.8c.15-.37.23-.79.25-1.26.03-.48.04-.87.04-1.17l.88.27-2.24.36a26.46 26.46 0 0 0-2.8.6c-.33.12-.62.26-.85.42-.23.16-.4.34-.54.55-.12.2-.18.45-.18.73 0 .32.08.6.24.85.16.24.4.44.7.58.31.14.7.22 1.15.22Zm10.35 1.94V5.54h2.55V8.7l-.3-.41c.15-.43.36-.83.63-1.18a4.02 4.02 0 0 1 2.03-1.4 5.25 5.25 0 0 1 2.39-.17v2.7a3.71 3.71 0 0 0-2.68.31 3.02 3.02 0 0 0-1.54 1.98c-.12.43-.18.89-.18 1.38v6.59h-2.9Zm15.96.36a6.83 6.83 0 0 1-3.45-.85 6.07 6.07 0 0 1-2.33-2.37 7.1 7.1 0 0 1-.83-3.48c0-1.41.27-2.64.82-3.68a5.96 5.96 0 0 1 2.27-2.44 6.44 6.44 0 0 1 3.35-.86 5.54 5.54 0 0 1 5.52 3.6c.46 1.14.63 2.5.52 4.04h-2.87v-1.05c0-1.41-.25-2.44-.74-3.09-.49-.64-1.26-.97-2.3-.97-1.19 0-2.07.37-2.65 1.1-.57.73-.86 1.8-.86 3.21 0 1.31.29 2.33.86 3.05.58.72 1.42 1.08 2.53 1.08a3.12 3.12 0 0 0 3.04-1.85l2.85.86a5.79 5.79 0 0 1-2.3 2.73 6.3 6.3 0 0 1-3.43.97Zm-4.46-6.04v-2.18h8.91v2.18h-8.91Zm13.97 5.68V.86h2.89V18.5h-2.9Zm8.9 5.76 2.5-6.85.05 2.01-5.65-13.88h3.01l4.01 10.27h-.77l3.9-10.27h2.9l-7.23 18.72h-2.71Z" fill="#4D77FF"/></svg>