<?xml version="1.0" encoding="utf-8"?><svg viewBox="0 0 40 40" xmlns="http://www.w3.org/2000/svg" xmlns:xlink="http://www.w3.org/1999/xlink"><style>:root>svg{display:none}:root>svg:target{display:block}</style><svg fill="none" viewBox="0 0 40 40" id="arrow" xmlns="http://www.w3.org/2000/svg"><path d="M30.28 21.67l-4.3 4.31 2.35 2.35L36.67 20l-8.34-8.33-2.35 2.35 4.3 4.31H3.33v3.34h26.95z" fill="#121212"/></svg><svg fill="none" viewBox="0 0 40 40" id="calendar" xmlns="http://www.w3.org/2000/svg"><path fill-rule="evenodd" clip-rule="evenodd" d="M5 28.12v-12.7h30v12.8c0 5.23-3.3 8.45-8.56 8.45h-12.9c-5.2 0-8.54-3.29-8.54-8.55zm8.27-4.1a1.37 1.37 0 01-1.42-1.34c0-.76.6-1.4 1.35-1.43.74 0 1.35.59 1.37 1.33.03.77-.56 1.4-1.3 1.44zm6.76 0a1.37 1.37 0 01-1.41-1.34c0-.76.59-1.4 1.35-1.43.74 0 1.35.59 1.36 1.33.04.77-.56 1.4-1.3 1.44zm6.72 6.13a1.41 1.41 0 01-1.37-1.42c-.01-.76.6-1.4 1.35-1.41h.02c.77 0 1.4.63 1.4 1.41a1.4 1.4 0 01-1.4 1.42zm-8.13-1.42c.03.77.66 1.37 1.41 1.34a1.37 1.37 0 001.3-1.43 1.36 1.36 0 00-1.36-1.34c-.76.04-1.35.67-1.35 1.43zm-6.79 0c.04.77.66 1.37 1.42 1.34a1.37 1.37 0 001.3-1.43 1.36 1.36 0 00-1.37-1.34c-.75.04-1.35.67-1.35 1.43zm13.57-6.06c0-.77.6-1.39 1.35-1.4.74 0 1.33.6 1.37 1.33.01.77-.58 1.4-1.32 1.42a1.36 1.36 0 01-1.4-1.34v-.01z" fill="#4D77FF"/><path opacity=".4" d="M5 15.43c.03-.98.1-2.92.26-3.55.8-3.51 3.48-5.75 7.31-6.06h14.86c3.8.33 6.52 2.58 7.3 6.06.16.61.24 2.57.26 3.55H5.01z" fill="#4D77FF"/><path d="M13.84 10.98c.73 0 1.27-.54 1.27-1.28V4.62c0-.74-.54-1.29-1.27-1.29-.72 0-1.27.55-1.27 1.29V9.7c0 .74.55 1.28 1.27 1.28zM26.16 10.98c.7 0 1.27-.54 1.27-1.28V4.62c0-.74-.56-1.29-1.27-1.29-.73 0-1.27.55-1.27 1.29V9.7c0 .74.54 1.28 1.27 1.28z" fill="#4D77FF"/></svg><svg fill="none" viewBox="0 0 24 24" id="check" xmlns="http://www.w3.org/2000/svg"><circle cx="12" cy="12" r="12" fill="#4D77FF"/><path d="M17.33 8L10 15.33 6.67 12" stroke="#fff" stroke-width="2" stroke-linecap="round" stroke-linejoin="round"/></svg><svg viewBox="0 0 24 24" id="facebook" xmlns="http://www.w3.org/2000/svg"><path d="M2 12a10 10 0 008.44 9.88V14.9H7.9V12h2.54V9.8a3.53 3.53 0 013.78-3.9c.74.01 1.5.08 2.23.2v2.46H15.2a1.45 1.45 0 00-1.63 1.56V12h2.77l-.44 2.9h-2.33v6.98A10 10 0 102 12z"/></svg><svg viewBox="0 0 24 24" id="instagram" xmlns="http://www.w3.org/2000/svg"><path d="M12 21.04a68.5 68.5 0 01-3.7-.05 6.58 6.58 0 01-2.2-.45 4.62 4.62 0 01-2.62-2.63 6.6 6.6 0 01-.42-2.2C3 14.77 3 14.46 3 12.02c0-2.47.02-2.76.06-3.71a6.59 6.59 0 01.42-2.19A4.61 4.61 0 016.1 3.48a6.53 6.53 0 012.18-.42C9.25 3 9.56 3 12 3c2.48 0 2.77 0 3.71.05.75.01 1.5.16 2.2.42a4.62 4.62 0 012.63 2.63c.26.71.4 1.46.42 2.22.05.96.05 1.27.05 3.7s-.01 2.77-.05 3.72a6.6 6.6 0 01-.42 2.19 4.62 4.62 0 01-2.64 2.63c-.7.26-1.44.4-2.18.42-.96.05-1.27.05-3.72.05zm-.03-16.45c-2.45 0-2.7.01-3.66.05a4.99 4.99 0 00-1.67.31 2.99 2.99 0 00-1.71 1.72 5 5 0 00-.32 1.68c-.05.97-.05 1.23-.05 3.65 0 2.4.01 2.7.05 3.66.01.57.12 1.13.31 1.67.31.79.93 1.4 1.72 1.7a4.92 4.92 0 001.67.32c.97.06 1.23.06 3.66.06 2.45 0 2.7-.02 3.65-.06a4.97 4.97 0 001.67-.31A3 3 0 0019 17.33a5 5 0 00.31-1.69h.01c.05-.95.05-1.2.05-3.65 0-2.44-.01-2.7-.06-3.66a5.06 5.06 0 00-.3-1.66 3 3 0 00-1.72-1.72c-.53-.2-1.1-.3-1.67-.3-.96-.06-1.22-.06-3.65-.06zM12 16.62A4.62 4.62 0 1116.62 12 4.63 4.63 0 0112 16.62zM12 9a3 3 0 103 3 3 3 0 00-3-3zm4.8-.72a1.08 1.08 0 11.01-2.15 1.08 1.08 0 010 2.15z"/></svg><svg fill="none" viewBox="0 0 40 40" id="profile" xmlns="http://www.w3.org/2000/svg"><path d="M20 25.3c-7.2 0-13.33 1.12-13.33 5.66 0 4.53 6.1 5.7 13.32 5.7 7.2 0 13.33-1.13 13.33-5.66 0-4.54-6.1-5.7-13.33-5.7z" fill="#4D77FF"/><path opacity=".4" d="M20 20.97c4.9 0 8.81-3.92 8.81-8.82S24.9 3.33 20 3.33a8.79 8.79 0 00-8.82 8.82c0 4.9 3.93 8.82 8.82 8.82z" fill="#4D77FF"/></svg><svg fill="none" viewBox="0 0 40 40" id="search" xmlns="http://www.w3.org/2000/svg"><ellipse cx="17.67" cy="17.76" rx="14.33" ry="14.42" fill="#4D77FF"/><path opacity=".4" d="M34.46 36.6a2.2 2.2 0 01-1.48-.65l-3.4-3.97a1.81 1.81 0 01-.13-2.53 1.63 1.63 0 012.31 0l4.27 3.41a2.25 2.25 0 01-1.48 3.8l-.1-.07z" fill="#4D77FF"/></svg><svg fill="none" viewBox="0 0 40 40" id="star" xmlns="http://www.w3.org/2000/svg"><path opacity=".4" d="M21.63 5.19l3.7 7.46c.28.54.8.91 1.4 1l8.34 1.2c.49.08.93.33 1.23.73.3.38.42.87.35 1.36-.06.4-.25.77-.54 1.05l-6.04 5.85a1.76 1.76 0 00-.53 1.61l1.48 8.23c.16 1-.5 1.93-1.48 2.12-.4.07-.83 0-1.2-.19l-7.43-3.87a1.95 1.95 0 00-1.75 0l-7.44 3.87a1.9 1.9 0 01-2.55-.75 1.88 1.88 0 01-.2-1.16l1.5-8.23c.1-.6-.1-1.2-.54-1.61L3.89 18a1.8 1.8 0 01-.05-2.56l.05-.05c.28-.29.66-.47 1.07-.52l8.33-1.22c.6-.08 1.12-.45 1.4-1l3.58-7.47c.31-.64.98-1.04 1.7-1.02h.22c.62.07 1.16.46 1.44 1.02z" fill="#4D77FF"/><path d="M19.99 31.53c-.33 0-.64.1-.92.25l-7.4 3.87c-.9.43-2 .1-2.5-.77a1.84 1.84 0 01-.2-1.16l1.49-8.21c.1-.6-.1-1.2-.54-1.63l-6.04-5.85a1.82 1.82 0 010-2.6c.29-.28.66-.47 1.05-.53l8.35-1.23a1.8 1.8 0 001.39-1l3.63-7.56c.34-.62 1-.98 1.7-.94l-.01 27.36z" fill="#4D77FF"/></svg><svg viewBox="0 0 24 24" id="twitter" xmlns="http://www.w3.org/2000/svg"><path d="M20 6.69a4.3 4.3 0 001.88-2.38 8.59 8.59 0 01-2.72 1.05 4.3 4.3 0 00-7.32 3.91A12.18 12.18 0 013 4.79a4.3 4.3 0 001.33 5.73 4.28 4.28 0 01-1.95-.54v.05a4.3 4.3 0 003.45 4.21 4.3 4.3 0 01-1.94.07 4.3 4.3 0 004 2.98 8.61 8.61 0 01-5.32 1.84 9 9 0 01-1.03-.06A12.15 12.15 0 008.12 21 12.13 12.13 0 0020.33 8.79l-.01-.56a8.72 8.72 0 002.14-2.22 8.58 8.58 0 01-2.47.68z"/></svg></svg>