<?xml version="1.0" encoding="utf-8"?><svg viewBox="0 0 24 24" xmlns="http://www.w3.org/2000/svg" xmlns:xlink="http://www.w3.org/1999/xlink"><style>:root>svg{display:none}:root>svg:target{display:block}</style><svg viewBox="0 0 24 24" id="facebook" xmlns="http://www.w3.org/2000/svg"><path d="M2 12a10 10 0 008.44 9.88V14.9H7.9V12h2.54V9.8a3.53 3.53 0 013.78-3.9c.74.01 1.5.08 2.23.2v2.46H15.2a1.45 1.45 0 00-1.63 1.56V12h2.77l-.44 2.9h-2.33v6.98A10 10 0 102 12z"/></svg><svg viewBox="0 0 24 24" id="instagram" xmlns="http://www.w3.org/2000/svg"><path d="M12 21.04a68.5 68.5 0 01-3.7-.05 6.58 6.58 0 01-2.2-.45 4.62 4.62 0 01-2.62-2.63 6.6 6.6 0 01-.42-2.2C3 14.77 3 14.46 3 12.02c0-2.47.02-2.76.06-3.71a6.59 6.59 0 01.42-2.19A4.61 4.61 0 016.1 3.48a6.53 6.53 0 012.18-.42C9.25 3 9.56 3 12 3c2.48 0 2.77 0 3.71.05.75.01 1.5.16 2.2.42a4.62 4.62 0 012.63 2.63c.26.71.4 1.46.42 2.22.05.96.05 1.27.05 3.7s-.01 2.77-.05 3.72a6.6 6.6 0 01-.42 2.19 4.62 4.62 0 01-2.64 2.63c-.7.26-1.44.4-2.18.42-.96.05-1.27.05-3.72.05zm-.03-16.45c-2.45 0-2.7.01-3.66.05a4.99 4.99 0 00-1.67.31 2.99 2.99 0 00-1.71 1.72 5 5 0 00-.32 1.68c-.05.97-.05 1.23-.05 3.65 0 2.4.01 2.7.05 3.66.01.57.12 1.13.31 1.67.31.79.93 1.4 1.72 1.7a4.92 4.92 0 001.67.32c.97.06 1.23.06 3.66.06 2.45 0 2.7-.02 3.65-.06a4.97 4.97 0 001.67-.31A3 3 0 0019 17.33a5 5 0 00.31-1.69h.01c.05-.95.05-1.2.05-3.65 0-2.44-.01-2.7-.06-3.66a5.06 5.06 0 00-.3-1.66 3 3 0 00-1.72-1.72c-.53-.2-1.1-.3-1.67-.3-.96-.06-1.22-.06-3.65-.06zM12 16.62A4.62 4.62 0 1116.62 12 4.63 4.63 0 0112 16.62zM12 9a3 3 0 103 3 3 3 0 00-3-3zm4.8-.72a1.08 1.08 0 11.01-2.15 1.08 1.08 0 010 2.15z"/></svg><svg viewBox="0 0 24 24" id="twitter" xmlns="http://www.w3.org/2000/svg"><path d="M20 6.69a4.3 4.3 0 001.88-2.38 8.59 8.59 0 01-2.72 1.05 4.3 4.3 0 00-7.32 3.91A12.18 12.18 0 013 4.79a4.3 4.3 0 001.33 5.73 4.28 4.28 0 01-1.95-.54v.05a4.3 4.3 0 003.45 4.21 4.3 4.3 0 01-1.94.07 4.3 4.3 0 004 2.98 8.61 8.61 0 01-5.32 1.84 9 9 0 01-1.03-.06A12.15 12.15 0 008.12 21 12.13 12.13 0 0020.33 8.79l-.01-.56a8.72 8.72 0 002.14-2.22 8.58 8.58 0 01-2.47.68z"/></svg></svg>